<?xml version="1.0" encoding="utf-8"?>
<!-- Generator: Adobe Illustrator 24.2.0, SVG Export Plug-In . SVG Version: 6.00 Build 0)  -->
<svg version="1.1" id="Lager_1" focusable="false" xmlns="http://www.w3.org/2000/svg" xmlns:xlink="http://www.w3.org/1999/xlink"
	 x="0px" y="0px" viewBox="0 0 50 50" style="enable-background:new 0 0 50 50;" xml:space="preserve">
<style type="text/css">
	.st0{fill:none;stroke:#8C9070;stroke-width:2;stroke-linecap:round;stroke-linejoin:round;stroke-miterlimit:10;}
</style>
<path class="st0" d="M2.2,14.9L24,24.8c0.6,0.3,1.4,0.3,2,0l21.8-9.9c1.5-0.7,1.5-3,0-3.7L26,1.2c-0.6-0.3-1.4-0.3-2,0L2.2,11.1
	C0.6,11.8,0.6,14.2,2.2,14.9z M7.6,20.7l-5.4,2.5c-1.5,0.7-1.5,3,0,3.7L24,36.8c0.6,0.3,1.4,0.3,2,0l21.8-9.9c1.6-0.7,1.6-3,0-3.7
	l0,0l-5.4-2.5 M7.6,32.7l-5.4,2.5c-1.5,0.7-1.5,3,0,3.7L24,48.8c0.6,0.3,1.4,0.3,2,0l21.8-9.9c1.6-0.7,1.6-3,0-3.7l-5.4-2.5"/>
</svg>
