<?xml version="1.0" encoding="utf-8"?>
<!-- Generator: Adobe Illustrator 24.2.0, SVG Export Plug-In . SVG Version: 6.00 Build 0)  -->
<svg version="1.1" id="Lager_1" focusable="false" xmlns="http://www.w3.org/2000/svg" xmlns:xlink="http://www.w3.org/1999/xlink"
	 x="0px" y="0px" viewBox="0 0 50 50" style="enable-background:new 0 0 50 50;" xml:space="preserve">
<style type="text/css">
	.st0{fill:none;stroke:#8C9070;stroke-width:2;stroke-linecap:round;stroke-miterlimit:10;}
	.st1{fill:none;stroke:#8C9070;stroke-width:2;stroke-miterlimit:10;}
</style>
<path class="st0" d="M4,15v-3.5C4,9,6,7,8.5,7H13V2.1C13,1.5,13.5,1,14.1,1h3.8C18.5,1,19,1.5,19,2.1V7h12V2.1C31,1.5,31.5,1,32.1,1
	h3.8C36.5,1,37,1.5,37,2.1V7h4.5C44,7,46,9,46,11.5V15"/>
<path class="st1" d="M5.1,19h39.8c0.6,0,1.1,0.5,1.1,1.1v24.4c0,2.5-2,4.5-4.5,4.5h-33C6,49,4,47,4,44.5V20.1C4,19.5,4.5,19,5.1,19z
	"/>
<path class="st0" d="M17.9,30.8c-0.4-0.4-1.1-0.4-1.6,0l-2.7,2.6c-0.4,0.4-0.4,1.1,0,1.6l7.7,7.8c0.4,0.4,1.1,0.4,1.6,0l13.4-13.3
	c0.4-0.4,0.4-1.1,0-1.6v0l-2.6-2.7c-0.4-0.4-1.1-0.4-1.6,0l-9.9,9.9"/>
</svg>
